# xmcd CD database file
#
# Track frame offsets:
#	150
#	30182
#	53795
#	68842
#	93737
#	115116
#	137356
#	166326
#	203941
#	229446
#
# Disc length: 3331 seconds
#
# Revision: 0
# Processed by: cddbd v1.4PL0 Copyright (c) Steve Scherf et al.
# Submitted via: CDex 1.51
#
DISCID=820d010a
DTITLE=Modern Jazz Tuba - MJT Project
DYEAR=1900
DGENRE=Jazz
TTITLE0=Cherokee
TTITLE1=Valvin' On a Riff
TTITLE2=Skylark
TTITLE3=Rene's Song
TTITLE4=Cookin' at the Continental
TTITLE5=Sandu
TTITLE6=Summer Knows
TTITLE7=Blue Rondo A La Turk
TTITLE8=I-95
TTITLE9=Oleo
EXTD=
EXTT0=
EXTT1=
EXTT2=
EXTT3=
EXTT4=
EXTT5=
EXTT6=
EXTT7=
EXTT8=
EXTT9=
PLAYORDER=
